<?xml version="1.0" encoding="iso-8859-1"?>
<!-- Uploaded to: SVG Repo, www.svgrepo.com, Generator: SVG Repo Mixer Tools -->
<svg fill="#aaacaa" height="600px" width="600px" version="1.1" id="Layer_1" xmlns="http://www.w3.org/2000/svg" xmlns:xlink="http://www.w3.org/1999/xlink" 
	 viewBox="0 0 512.001 512.001" xml:space="preserve">
<g>
	<g>
		<path d="M304.002,322.529H26.981V91.202h222.465l20.376-24.48H14.741c-6.76,0-12.24,5.48-12.24,12.24v255.807
			c0,6.76,5.48,12.24,12.24,12.24h289.269L304.002,322.529z"/>
	</g>
</g>
<g>
	<g>
		<path d="M498.372,78.73h-56.616c-6.146,0-11.127,4.982-11.127,11.127s4.982,11.127,11.127,11.127h56.616
			c6.146,0,11.127-4.982,11.127-11.127S504.517,78.73,498.372,78.73z"/>
	</g>
</g>
<g>
	<g>
		<path d="M489.657,3.259c-4.345-4.345-11.391-4.345-15.737,0l-40.034,40.034c-4.345,4.345-4.345,11.391,0,15.737
			c4.345,4.344,11.392,4.345,15.737,0l40.034-40.034C494.002,14.651,494.002,7.605,489.657,3.259z"/>
	</g>
</g>
<g>
	<g>
		<path d="M465.933,172.775c-0.125-24.445-20.107-44.326-44.549-44.326c-16.308,0-70.936,0-87.005,0l-41.222-4.82l22.189-26.659
			c6.654-7.994,5.563-19.862-2.426-26.511c-7.986-6.649-19.856-5.57-26.511,2.426l-44.417,53.365
			c-4.42,5.309-5.576,12.613-3.013,19.028c2.554,6.39,8.408,10.907,15.295,11.713l66.419,7.766c0,0,0.009,322.776,0.009,324.655
			c0,12.476,10.114,22.59,22.59,22.59s22.59-10.114,22.59-22.59v-180.56h9.754v180.56c0,12.476,10.114,22.59,22.59,22.59
			s22.59-10.114,22.59-22.59c0-298.716-0.401-127.71-0.41-316.413c0-2.169,1.753-3.93,3.922-3.94
			c2.169-0.01,3.938,1.736,3.957,3.906l0.695,138.298c0.052,10.346,8.449,18.731,18.822,18.731c0.032,0,0.066,0,0.097,0
			c10.396-0.052,18.782-8.522,18.73-18.919L465.933,172.775z"/>
	</g>
</g>
<g>
	<g>
		<path d="M371.012,33.405c-21.587,0-39.015,17.51-39.015,39.015c0,21.448,17.382,39.015,39.015,39.015
			c21.547,0,39.015-17.468,39.015-39.015C410.026,50.806,392.505,33.405,371.012,33.405z"/>
	</g>
</g>
<g>
	<g>
		<path d="M127.186,212.896l-11.916-16.423l11.116-15.421c0.501-0.801,0.801-1.402,0.801-2.103c0-3.004-5.408-6.51-8.511-6.51
			c-0.901,0-2.303,0.401-3.004,1.502l-9.213,14.521l-9.112-14.621c-0.801-1.302-2.303-1.402-2.904-1.402
			c-3.405,0-8.613,3.505-8.613,6.51c0,0.801,0.501,1.703,0.801,2.103l11.015,15.321l-11.817,16.524
			c-0.502,0.6-0.802,1.401-0.802,2.202c0,3.004,5.508,6.409,8.211,6.409c1.001,0,2.504-0.401,3.205-1.402l10.015-15.221
			l10.115,15.221c0.701,1.001,2.003,1.402,3.004,1.402c3.405,0,8.412-3.605,8.412-6.409
			C127.987,214.198,127.586,213.297,127.186,212.896z"/>
	</g>
</g>
<g>
	<g>
		<path d="M168.144,191.166h-10.616V180.55c0-2.103-2.103-4.106-5.308-4.106c-3.004,0-5.408,2.003-5.408,4.106v10.615h-10.715
			c-2.404,0-4.006,2.404-4.006,5.408c0,3.205,1.602,5.308,4.006,5.308h10.715v10.714c0,2.404,2.404,4.006,5.408,4.006
			c3.205,0,5.308-1.602,5.308-4.006v-10.714h10.616c2.103,0,4.206-2.103,4.206-5.308
			C172.35,193.569,170.247,191.166,168.144,191.166z"/>
	</g>
</g>
<g>
	<g>
		<path d="M212.507,172.338c-1.402,0-2.904,0.601-3.405,2.203l-9.713,29.943l-12.018-29.943c-0.501-1.602-2.003-2.203-3.705-2.203
			c-3.305,0-8.613,2.804-8.613,6.209c0,0.601,0.2,1.202,0.401,1.702l17.224,36.853c-0.7,12.016-9.913,14.72-14.32,14.72
			c-2.404,0-3.305,2.504-3.305,5.408c0,4.807,2.604,5.508,5.909,5.508c17.925,0,20.729-13.119,25.436-25.136l14.62-37.353
			c0.2-0.501,0.3-1.102,0.3-1.502C221.319,175.142,215.61,172.338,212.507,172.338z"/>
	</g>
</g>
<g>
	<g>
		<path d="M257.272,200.779h-25.837c-2.404,0-4.006,2.404-4.006,5.408c0,3.205,1.602,5.308,4.006,5.308h25.837
			c2.103,0,4.206-2.103,4.206-5.308C261.478,203.182,259.375,200.779,257.272,200.779z"/>
	</g>
</g>
<g>
	<g>
		<path d="M257.272,180.45h-25.837c-2.404,0-4.006,2.404-4.006,5.408c0,3.205,1.602,5.308,4.006,5.308h25.837
			c2.103,0,4.206-2.103,4.206-5.308C261.478,182.853,259.375,180.45,257.272,180.45z"/>
	</g>
</g>
</svg>